<svg width="73" height="73" xmlns="http://www.w3.org/2000/svg"><g fill="none" fill-rule="evenodd"><circle fill="#DBDBDB" cx="36.5" cy="36.5" r="36.5"/><path d="M36.726 28.344c-1.406 0-3.583-1.617-5.875-1.559-3.025.04-5.799 1.773-7.36 4.52-3.139 5.512-.808 13.655 2.255 18.135 1.502 2.182 3.274 4.636 5.625 4.558 2.253-.097 3.101-1.48 5.836-1.48 2.717 0 3.487 1.48 5.876 1.422 2.427-.04 3.968-2.22 5.451-4.422 1.715-2.532 2.427-4.987 2.466-5.123-.058-.02-4.72-1.831-4.777-7.286-.039-4.558 3.679-6.74 3.852-6.837-2.119-3.136-5.374-3.487-6.51-3.565-2.967-.233-5.452 1.637-6.84 1.637zm5.008-4.598c1.252-1.519 2.08-3.642 1.85-5.746-1.792.078-3.95 1.208-5.24 2.727-1.156 1.344-2.158 3.506-1.888 5.571 1.984.156 4.026-1.032 5.278-2.552z" fill="#000" fill-rule="nonzero"/></g></svg>