<?xml version="1.0" standalone="no"?><!DOCTYPE svg PUBLIC "-//W3C//DTD SVG 1.1//EN" "http://www.w3.org/Graphics/SVG/1.1/DTD/svg11.dtd"><svg class="icon" width="128px" height="128.00px" viewBox="0 0 1024 1024" version="1.1" xmlns="http://www.w3.org/2000/svg"><path d="M1024.185051 967.92381c-24.380952-168.228571-148.72381-302.32381-309.638095-336.457143 85.333333-63.390476 141.409524-165.790476 141.409524-282.819048C855.95648 156.038095 702.35648 0 512.185051 0S168.413623 156.038095 168.413623 348.647619c0 117.028571 56.07619 219.428571 141.409524 282.819048C148.908861 665.6 24.566004 802.133333 0.185051 967.92381-2.253044 997.180952 19.689813 1024 48.946956 1024h926.476191c29.257143 0 51.2-26.819048 48.761904-56.07619z" fill="#8F65FF" /><path d="M573.137432 641.219048h-121.904762l34.133334 60.952381-34.133334 190.171428 60.952381 65.828572 60.952381-65.828572-34.133333-190.171428z" fill="#C7B2FF" /><path d="M512.185051 463.238095c-34.133333 0-65.828571-14.628571-87.771428-39.009524-7.314286-7.314286-17.066667-9.752381-26.819048-9.752381-31.695238 0-48.761905 39.009524-26.819047 63.390477 36.571429 36.571429 85.333333 58.514286 141.409523 58.514285s104.838095-21.942857 141.409524-58.514285c21.942857-24.380952 4.87619-63.390476-26.819047-63.390477-9.752381 0-19.504762 2.438095-26.819048 9.752381-21.942857 24.380952-53.638095 39.009524-87.771429 39.009524z" fill="#FFFFFF" /></svg>