<svg width="73" height="73" xmlns="http://www.w3.org/2000/svg"><g fill="none" fill-rule="evenodd"><circle fill="#2ECC71" cx="36.5" cy="36.5" r="36.5"/><path d="M43.986 18.633C46.706 20.496 48.588 23.42 49 27H23.976c.427-3.506 2.3-6.399 4.981-8.271l-1.849-2.774a1 1 0 0 1 1.664-1.11l1.914 2.872A13.438 13.438 0 0 1 36.54 16.4c2.052 0 3.992.437 5.705 1.24l1.863-2.795a1 1 0 0 1 1.664 1.11l-1.786 2.678zM49 28l.04 17.695c0 1.144-.492 2.02-1.477 2.63a3.24 3.24 0 0 1-1.478.343H44.04v6.289c0 1.358-.983 2.859-2.7 2.859-1.818 0-2.868-1.437-2.868-2.859v-6.289h-3.864v6.289c0 1.787-1.306 2.859-2.727 2.859a2.854 2.854 0 0 1-2.841-2.859v-6.289h-2.045c-1.288 0-2.16-.534-2.614-1.6a3.06 3.06 0 0 1-.341-1.373L24 28h25zm6.967 2.169v11.408c0 .812-.258 1.477-.775 1.994-.517.516-1.182.775-1.994.775a2.563 2.563 0 0 1-1.883-.775c-.517-.517-.775-1.182-.775-1.994V30.169c0-.812.258-1.477.775-1.994a2.563 2.563 0 0 1 1.883-.775c.812 0 1.477.277 1.994.83.517.554.775 1.2.775 1.939zm-33.43 0v11.408c0 .812-.258 1.477-.775 1.994-.517.516-1.182.775-1.994.775a2.563 2.563 0 0 1-1.883-.775c-.517-.517-.775-1.182-.775-1.994V30.169c0-.812.258-1.477.775-1.994a2.563 2.563 0 0 1 1.883-.775c.812 0 1.477.277 1.994.83.517.554.775 1.2.775 1.939zM41.19 24.9a1.25 1.25 0 1 0 0-2.5 1.25 1.25 0 0 0 0 2.5zm-9.29 0a1.25 1.25 0 1 0 0-2.5 1.25 1.25 0 0 0 0 2.5z" fill="#FFF"/></g></svg>